<svg id="Calque_3" data-name="Calque 3" xmlns="http://www.w3.org/2000/svg" viewBox="0 0 256 256"><defs><style>.cls-1{fill:#fff;}</style></defs><path class="cls-1" d="M384,384H128V128H384ZM273,236c-2.74,3.65-5.37,7.38-8.24,10.92-3.23,4-2,7.27,1.12,10.57,3.3,3.52,7,3.78,10.75,1.21a33.6,33.6,0,0,0,7.26-6.72c7.07-9,13.8-18.32,20.81-27.39,4.83-6.23,5.8-11.81,1.52-18.33-1.58-2.4-5-4.07-8-4.87-1.47-.4-4.43,1.42-5.43,3-3.22,5.21-5.54,11-8.79,16.16-3.39,5.42-7.44,10.42-11.21,15.6,2.48-4.28,5.07-8.5,7.42-12.84,4.17-7.73,11-14.21,9.83-24.35-.74-6.35-4.09-10.82-11.31-12.35-4.5-.95-9,2.1-11.65,7.23-4.92,9.68-7.79,20.37-16,28.39-6.93,6.75-3.31,20,5.92,23.52a6.73,6.73,0,0,0,5.36-1C266.05,242.17,269.43,239,273,236Zm-40.1-22.3c-.5-1.79-2-4.18-1.33-5.29,3-5.09,2.17-9-2.31-12.6l5.3,2.07c4.77-6.23,10-12.1,14-18.71,2.18-3.6,2.89-8.42,3.15-12.76.29-4.67-3.54-6.3-7.38-3.67a14,14,0,0,0-2,1.52,46.32,46.32,0,0,1-20.72,12.29c-5.37,1.51-11.28,2.81-12.72,9.56-1,4.87-1.68,9.82-2.53,14.73-1.14,6.5-2.38,13-3.46,19.5C202,226,200,231.8,200.57,237.32c1.2,12,3.75,23.86,5.65,35.8,1,6.06.84,12.44,2.74,18.17,3.26,9.82,2,19-1.73,28.11-5.52,13.46-11.45,26.76-17,40.22-.45,1.1.46,3.95,1.26,4.18,8.75,2.49,17.49,5.36,26.44,6.67a134.22,134.22,0,0,0,37.77.16c7.15-1,8.88-2,10.57-8.83a22.41,22.41,0,0,1,1.58-4.7c3.91-7.72,7.91-15.39,11.77-22.87L247,317.57l.57-1.19c2.1.89,4.24,1.67,6.27,2.68,7.42,3.71,14.73,7.61,22.21,11.18,3.88,1.85,7.05.79,8.73-3.49a43,43,0,0,1,2.76-6.37c3.21-5.33,6-11.09,10.13-15.67,6-6.71,5.92-15.28,8.57-23,4.53-13.16,6-27.37,14.26-39.24,4.06-5.83,1-13.43-1.92-17.19s-7.1-4.63-10.14-1c-8.16,9.75-15.74,20-23.25,30.25-2.46,3.35-1.84,7,1.79,9.63,3.47,2.52,7,2.92,10.54.13l7.17-5.64c-2.68,4.61-6.06,8.51-11.49,9.07-6.66.68-9.9-4-12.35-9.42-1.66,1-2.91,1.79-4.24,2.47a10.59,10.59,0,0,1-15.32-7.4,36.07,36.07,0,0,0-1.63-5l-5.09,3c-2.78-5.09-5.41-10.25-8.37-15.22-2.83-4.77-6.09-9.28-9-14-1.67-2.74-3-5.7-4.43-8.55,2.63,3.12,5.49,6.07,7.84,9.39,2.83,4,4.78,2.32,7.49-.21,8.71-8.08,12.46-19,17.28-29.31,4-8.54,2.79-12.78-5.6-16.65-3.23-1.49-6.67-1.64-8.93,2.41a39.17,39.17,0,0,1-5.69,8.13C238,194.81,233.4,203.29,232.85,213.73Z" transform="translate(-128 -128)"/><path d="M232.74,213.59c1.47,2.86,2.77,5.82,4.44,8.56,2.89,4.74,6.15,9.25,9,14,3,5,5.59,10.13,8.37,15.22l5.09-3a36.07,36.07,0,0,1,1.63,5,10.59,10.59,0,0,0,15.32,7.4c1.33-.68,2.58-1.5,4.24-2.47,2.45,5.38,5.69,10.1,12.35,9.42,5.43-.56,8.81-4.46,11.49-9.07l-7.17,5.64c-3.55,2.79-7.07,2.39-10.54-.13-3.63-2.64-4.25-6.28-1.79-9.63,7.51-10.27,15.09-20.5,23.25-30.25,3-3.64,7.22-2.76,10.14,1s6,11.36,1.92,17.19c-8.25,11.87-9.73,26.08-14.26,39.24-2.65,7.7-2.57,16.27-8.57,23-4.1,4.58-6.92,10.34-10.13,15.67a43,43,0,0,0-2.76,6.37c-1.68,4.28-4.85,5.34-8.73,3.49-7.48-3.57-14.79-7.47-22.21-11.18-2-1-4.17-1.79-6.27-2.68l-.57,1.19,32.67,16.66c-3.86,7.48-7.86,15.15-11.77,22.87a22.41,22.41,0,0,0-1.58,4.7c-1.69,6.82-3.42,7.86-10.57,8.83a134.22,134.22,0,0,1-37.77-.16c-8.95-1.31-17.69-4.18-26.44-6.67-.8-.23-1.71-3.08-1.26-4.18,5.54-13.46,11.47-26.76,17-40.22,3.74-9.09,5-18.29,1.73-28.11-1.9-5.73-1.78-12.11-2.74-18.17-1.9-11.94-4.45-23.8-5.65-35.8C200,231.8,202,226,202.9,220.37c1.08-6.51,2.32-13,3.46-19.5.85-4.91,1.5-9.86,2.53-14.73,1.44-6.75,7.35-8,12.72-9.56a46.32,46.32,0,0,0,20.72-12.29,14,14,0,0,1,2-1.52c3.84-2.63,7.67-1,7.38,3.67-.26,4.34-1,9.16-3.15,12.76-4,6.61-9.26,12.48-14,18.71l-5.3-2.07c4.48,3.56,5.34,7.51,2.31,12.6-.66,1.11.83,3.5,1.33,5.29Z" transform="translate(-128 -128)"/><path d="M272.94,236c-3.51,3-6.89,6.13-10.62,8.79a6.73,6.73,0,0,1-5.36,1c-9.23-3.49-12.85-16.77-5.92-23.52,8.24-8,11.11-18.71,16-28.39,2.61-5.13,7.15-8.18,11.65-7.23,7.22,1.53,10.57,6,11.31,12.35,1.18,10.14-5.66,16.62-9.83,24.35-2.35,4.34-4.94,8.56-7.42,12.84Z" transform="translate(-128 -128)"/><path d="M272.78,236.21C276.55,231,280.6,226,284,220.61c3.25-5.19,5.57-11,8.79-16.16,1-1.61,4-3.43,5.43-3,2.93.8,6.38,2.47,8,4.87,4.28,6.52,3.31,12.1-1.52,18.33-7,9.07-13.74,18.36-20.81,27.39a33.6,33.6,0,0,1-7.26,6.72c-3.72,2.57-7.45,2.31-10.75-1.21-3.1-3.3-4.35-6.57-1.12-10.57,2.87-3.54,5.5-7.27,8.24-10.91Z" transform="translate(-128 -128)"/><path d="M232.85,213.73c.55-10.44,5.18-18.92,12.29-26.37a39.17,39.17,0,0,0,5.69-8.13c2.26-4,5.7-3.9,8.93-2.41,8.39,3.87,9.59,8.11,5.6,16.65-4.82,10.33-8.57,21.23-17.28,29.31-2.71,2.53-4.66,4.19-7.49.21-2.35-3.32-5.21-6.27-7.85-9.4Z" transform="translate(-128 -128)"/></svg>