<svg id="Calque_2" data-name="Calque 2" xmlns="http://www.w3.org/2000/svg" viewBox="0 0 137.86 205.62"><defs><style>.cls-1{stroke:#000;stroke-miterlimit:10;}</style></defs><path class="cls-1" d="M227.5,349.5c-.43,1.33,1.93,9.74,50.75,5.21a2.5,2.5,0,0,0,2.28-2.42,120.44,120.44,0,0,1,1.84-17.12,2.43,2.43,0,0,1,.55-1.14c3.23-3.67,23.87-29.14,27.57-83.44,0-.06,0-.12,0-.17,2.59-17.21,8.54-52.27,9.8-59.78a3.39,3.39,0,0,0-.38-2.23c-1.59-2.88-4.86-7.35-9.18-1.28a2.45,2.45,0,0,0-.35.79c-3.08,12.39-9.9,43.58-10.9,48.58,0,3-8,10-7-3,0-14,8-61,3-68,0,0-6.88-8.85-9.92,1.73a2.43,2.43,0,0,0-.1.55l-4,59.28a2.6,2.6,0,0,1-.23.9c-.76,1.61-3.46,6.61-5.88,1.18a11.46,11.46,0,0,1-.92-4.63V156.62a4.62,4.62,0,0,0-1.31-3.22c-2.13-2.18-6.35-4.77-8.58,5.55a8.13,8.13,0,0,0-.14,1.09c-.92,16.14-4.06,53.64-4.81,62.54a3.73,3.73,0,0,1-2.38,3.2c-2.23.83-5.51.7-6.78-6.28-1.86-10.24-5.46-50.8-5.94-56.36a2.43,2.43,0,0,0-.46-1.22c-1.54-2.06-7.14-8.5-11.4,1.12a2.38,2.38,0,0,0-.2,1c0,20.24,1.78,78.15,2,84.87a2.51,2.51,0,0,1-.29,1.23c-1.53,2.77-8.28,13.88-12.69,2.41-5.7-13.29-16.8-34.7-35-27.41a4.78,4.78,0,0,0-3,4.46v.67a5.42,5.42,0,0,0,2.61,4.64c5.12,3.12,16.27,11.57,19.36,27.5,0,.09.05.19.08.28,6.82,20.47,13.66,40.92,26.07,48.36a2.53,2.53,0,0,1,1.16,1.48C234.67,318.84,236.07,322.83,227.5,349.5Z" transform="translate(-183 -150.92)"/></svg>