<svg id="Calque_2" data-name="Calque 2" xmlns="http://www.w3.org/2000/svg" viewBox="0 0 96.9 230.56"><defs><style>.cls-1{stroke:#000;stroke-miterlimit:10;}</style></defs><path class="cls-1" d="M224.4,134.84c-.53,7.61-3,45.71.16,65.11a38.93,38.93,0,0,1,.28,11c-1.49,12-4.34,25.56-4.34,25.56s9-7,13-16c1-3,6-10,13-9,0,0,16-1,20-10h0a2,2,0,0,1,2-2h0a2.24,2.24,0,0,0,2.22-2l8.64-78.73a6.63,6.63,0,0,0-.29-2.8c-1.22-3.69-5.19-11.92-13.91.82a4,4,0,0,0-.62,1.52c-4.23,22.65-12,82.18-12,82.18s-3.06,10.72-8.52,4.69a10.06,10.06,0,0,1-2.5-6.63c-.2-14.59-1.55-53-1.9-62.76a7.64,7.64,0,0,0-1.73-4.63c-2.58-3.13-7.78-7.37-12.64,1A6.25,6.25,0,0,0,224.4,134.84Z" transform="translate(-209.91 -109.44)"/><path class="cls-1" d="M213.5,253.5c-2.49,8.71,2,21,3,32v23.9l-6,19.1s13,9,27,11h31.15l1.85-12s20-14,30-53c4-25.08,13.59-63.42-6.6-60.26a5.87,5.87,0,0,0-2.53,1,50.42,50.42,0,0,0-8.33,7.58,6.85,6.85,0,0,0-.92,1.35,44.79,44.79,0,0,0-4.62,13.29c-1.94,6.79-15.17,25.81,1.38,23.3a4.9,4.9,0,0,0,3-1.67c6.63-7.7,19.65-34.29,19.65-29.63-1,4.89-11.5,29.83-16.65,31.89a5.84,5.84,0,0,0-1.5,1c-1.91,1.66-5,4.42-11.84.43a1.62,1.62,0,0,0-2.4,1.08c-1.19,6.32-5.48,22.45-16.85,12.75a14,14,0,0,1-4.81-10.33c-.1-5.62-.36-10-.58-12.81A14.62,14.62,0,0,1,258.17,238l.39-.08A12.43,12.43,0,0,0,264.4,235c7.4-6.59,25.19-24.28,7.09-28.07a8.41,8.41,0,0,0-5.71.87c-5.13,2.76-13.29,7.88-20.37,8a8.94,8.94,0,0,0-6.32,2.73C231.16,226.67,215.19,247.58,213.5,253.5Z" transform="translate(-209.91 -109.44)"/><path class="cls-1" d="M272.09,203.19a.93.93,0,0,1,0-1.78c3.31-1,9-1.4,12.43,6.09,0,0,3.29,5.76-.58,11.31a.94.94,0,0,1-1.7-.46C281.79,213.45,281.71,206.31,272.09,203.19Z" transform="translate(-209.91 -109.44)"/><path class="cls-1" d="M252.42,248.34l-.85,19.5a4.69,4.69,0,0,0,1,3.16c2.56,3.12,9,9.07,12.89-3.5,2.34-10.94,2.86-16.38,3-18.24a4.63,4.63,0,0,1,.37-1.55l6.66-15.21-21.43,13A3.46,3.46,0,0,0,252.42,248.34Z" transform="translate(-209.91 -109.44)"/></svg>