<svg id="Calque_4" data-name="Calque 4" xmlns="http://www.w3.org/2000/svg" viewBox="0 0 256 256"><defs><style>.cls-1{fill:#fff;}</style></defs><path class="cls-1" d="M384,384H128V128H384ZM278,265.09l-1.18-.24a20.46,20.46,0,0,1,.47-3.78c3.63-11.42,3.4-23.24.81-34.5-3.69-16-.45-30.59,5.94-44.94,4.91-11,3.36-21.57-1.7-32a5.7,5.7,0,0,0-7.08-3.19A6.91,6.91,0,0,0,271,149.9a37.85,37.85,0,0,0-2.18,10.16,68.91,68.91,0,0,1-9.93,30.5c-11,18.19-22.21,36.21-33.56,54.15-6.24,9.85-14.26,17.89-25.26,22.56-3.17,1.35-6.61,2.64-9.11,4.86-9.33,8.29-18.4,16.87-27.33,25.58-1.22,1.19-2.12,4.23-1.46,5.61,7.51,15.85,15,31.72,23.27,47.19,3.05,5.7,8,10.39,12.56,16.11,9-10.65,19.75-18.23,25-30.55,5.63.67,9.7-2,8.29-6-3-8.58-6.59-17-9.94-25.44-.35-.9-.71-1.81-1.07-2.72a8,8,0,0,1,3.89,3.88c3.07,7.51,6,15.08,8.88,22.66.75,2,.77,4.64,4,3.67,10.39-3.09,21-5.6,31.08-9.55,10.3-4,20-9.52,30.42-14.56-1.13-.82-1.92-1.81-2.91-2.08-6.67-1.8-9.53-6-9.11-12.92.09-1.52-1.77-3.74-3.32-4.67-4.17-2.52-6.77-5.68-6.88-10.74-.14-6.66,4.33-9,10.49-10.46l-7.23-5.9Zm31.48-39.15.08,1.72H304c-4.65,0-9.33-.31-13.94.12-4.94.47-8.74,5.28-8.87,10.56-.11,5.12,3.61,6.56,7.62,7.76,4.58,1.37,9,3.37,13.7,4.22,3.61.65,7.87,1,11.11-.34,7.35-3,14.32-6.95,21.3-10.79a31.1,31.1,0,0,0,7-5.48c4.63-4.71,1.6-16.79-4.92-18.06a214.8,214.8,0,0,0-30.47-4.07c-8-.4-16.14,1-24.17,1.92-1.3.15-3.48,2.18-3.39,3.18.38,4.16,1.46,8.27,2.39,13C290.79,222.26,300.32,226.23,309.52,225.94Zm-.58,48.54c12.22-2,23-5.09,33-10.6a12.23,12.23,0,0,0,5.14-5.54c2.24-5.55-1.16-14.42-6.35-17.52a4.4,4.4,0,0,0-3.64-.08c-7,3.42-14,6.88-20.76,10.65-5.08,2.82-10,2.66-15.28.75a140.43,140.43,0,0,0-13.68-4.25,4.5,4.5,0,0,0-3.76,1.51c-3.4,4.46-1.87,11.31,3,14.28,4,2.42,7.86,5,12,7.06C302.11,272.45,306,273.44,308.94,274.48Zm-2.48,17.6.34-1c5.31-.39,10.65-1.38,15.9-1,9.92.66,15.07-5.9,19.91-12.58,1.43-2,.57-5.6.76-8.47-2.43.11-4.95-.13-7.27.42-3.36.81-6.58,2.23-9.88,3.33-10.85,3.6-21.38,5.33-32-1.58-2.77-1.81-7.8-1.05-11.48-.16-1.77.44-3.63,3.77-4,6-.83,5,2.48,8.34,6.83,9.73C292.4,288.9,299.48,290.33,306.46,292.08Zm13.27,16.46c5.6,0,12.55-4.62,15.46-10.14,1-1.9,1.06-4.3,1.54-6.48a52.81,52.81,0,0,0-6.11-.58c-12.69.29-25.35,3.79-38.11.08-.91-.26-3.47,1.76-3.65,3-.72,4.65,1.92,7.82,6.19,8.88C303.52,305.36,312.12,306.94,319.73,308.54Z" transform="translate(-128 -128)"/><path d="M278,265.09l1.63-3.87,7.23,5.9c-6.16,1.45-10.63,3.8-10.49,10.46.11,5.06,2.71,8.22,6.88,10.74,1.55.93,3.41,3.15,3.32,4.67-.42,7,2.44,11.12,9.11,12.92,1,.27,1.78,1.26,2.91,2.08-10.38,5-20.12,10.52-30.42,14.56-10.06,3.95-20.69,6.46-31.08,9.55-3.25,1-3.27-1.71-4-3.67-2.9-7.58-5.81-15.15-8.88-22.66a8,8,0,0,0-3.89-3.88c.36.91.72,1.82,1.07,2.72,3.35,8.47,6.9,16.86,9.94,25.44,1.41,4-2.66,6.69-8.29,6-5.27,12.32-16.07,19.9-25,30.55-4.54-5.72-9.51-10.41-12.56-16.11-8.24-15.47-15.76-31.34-23.27-47.19-.66-1.38.24-4.42,1.46-5.61,8.93-8.71,18-17.29,27.33-25.58,2.5-2.22,5.94-3.51,9.11-4.86,11-4.67,19-12.71,25.26-22.56,11.35-17.94,22.6-36,33.56-54.15a68.91,68.91,0,0,0,9.93-30.5A37.85,37.85,0,0,1,271,149.9a6.91,6.91,0,0,1,4.26-3.45,5.7,5.7,0,0,1,7.08,3.19c5.06,10.42,6.61,21,1.7,32-6.39,14.35-9.63,28.91-5.94,44.94,2.59,11.26,2.82,23.08-.81,34.5a20.46,20.46,0,0,0-.47,3.78Z" transform="translate(-128 -128)"/><path d="M309.52,225.94c-9.2.29-18.73-3.68-28.14,3.7-.93-4.69-2-8.8-2.39-13-.09-1,2.09-3,3.39-3.18,8-.94,16.16-2.32,24.17-1.92A214.8,214.8,0,0,1,337,215.65c6.52,1.27,9.55,13.35,4.92,18.06a31.1,31.1,0,0,1-7,5.48C328,243,321,247,313.64,250c-3.24,1.31-7.5,1-11.11.34-4.66-.85-9.12-2.85-13.7-4.22-4-1.2-7.73-2.64-7.62-7.76.13-5.28,3.93-10.09,8.87-10.56,4.61-.43,9.29-.11,13.94-.12h5.58Z" transform="translate(-128 -128)"/><path d="M308.94,274.48c-2.95-1-6.83-2-10.35-3.74-4.16-2-8-4.64-12-7.06-4.87-3-6.4-9.82-3-14.28a4.5,4.5,0,0,1,3.76-1.51A140.43,140.43,0,0,1,301,252.14c5.26,1.91,10.2,2.07,15.28-.75,6.8-3.77,13.78-7.23,20.76-10.65a4.4,4.4,0,0,1,3.64.08c5.19,3.1,8.59,12,6.35,17.52a12.23,12.23,0,0,1-5.14,5.54C332,269.39,321.16,272.45,308.94,274.48Z" transform="translate(-128 -128)"/><path d="M306.46,292.08c-7-1.75-14.06-3.18-20.91-5.35-4.35-1.39-7.66-4.69-6.83-9.73.38-2.26,2.24-5.59,4-6,3.68-.89,8.71-1.65,11.48.16,10.63,6.91,21.16,5.18,32,1.58,3.3-1.1,6.52-2.52,9.88-3.33,2.32-.55,4.84-.31,7.27-.42-.19,2.87.67,6.5-.76,8.47-4.84,6.68-10,13.24-19.91,12.58-5.25-.35-10.59.64-15.9,1Z" transform="translate(-128 -128)"/><path d="M319.73,308.54c-7.61-1.6-16.21-3.18-24.68-5.27-4.27-1.06-6.91-4.23-6.19-8.88.18-1.21,2.74-3.23,3.65-3,12.76,3.71,25.42.21,38.11-.08a52.81,52.81,0,0,1,6.11.58c-.48,2.18-.54,4.58-1.54,6.48C332.28,303.92,325.33,308.56,319.73,308.54Z" transform="translate(-128 -128)"/></svg>